<svg width="300" height="399" viewBox="0 0 300 399" fill="none" xmlns="http://www.w3.org/2000/svg">
<rect x="100" y="57" width="100" height="342" fill="#B4A6CA"/>
<rect x="200" y="163" width="100" height="236" fill="#866BAE"/>
<rect y="264" width="100" height="135" fill="#59378A"/>
<path d="M138.697 7.18182V29H133.435V12.1037H133.307L128.428 15.0866V10.527L133.808 7.18182H138.697ZM157.85 17.6328L153.066 17.7607C153.017 17.4197 152.882 17.1179 152.661 16.8551C152.441 16.5852 152.154 16.3757 151.798 16.2266C151.45 16.0703 151.046 15.9922 150.584 15.9922C149.98 15.9922 149.465 16.1129 149.039 16.3544C148.62 16.5959 148.414 16.9226 148.421 17.3345C148.414 17.6541 148.542 17.9311 148.805 18.1655C149.075 18.3999 149.554 18.5881 150.243 18.7301L153.396 19.3267C155.03 19.6392 156.244 20.1577 157.04 20.8821C157.843 21.6065 158.247 22.5653 158.254 23.7585C158.247 24.8807 157.914 25.8572 157.253 26.6882C156.6 27.5192 155.705 28.1655 154.568 28.6271C153.432 29.0817 152.132 29.3089 150.669 29.3089C148.333 29.3089 146.49 28.8295 145.14 27.8707C143.798 26.9048 143.031 25.6122 142.839 23.9929L147.985 23.8651C148.098 24.4616 148.393 24.9162 148.869 25.2287C149.345 25.5412 149.952 25.6974 150.691 25.6974C151.358 25.6974 151.901 25.5732 152.32 25.3246C152.74 25.076 152.953 24.7457 152.96 24.3338C152.953 23.9645 152.789 23.6697 152.47 23.4496C152.15 23.2223 151.649 23.0447 150.968 22.9169L148.112 22.3736C146.472 22.0753 145.25 21.5249 144.448 20.7223C143.645 19.9126 143.247 18.8828 143.254 17.6328C143.247 16.5391 143.539 15.6051 144.128 14.831C144.718 14.0497 145.556 13.4531 146.642 13.0412C147.729 12.6293 149.011 12.4233 150.488 12.4233C152.704 12.4233 154.451 12.8885 155.73 13.8189C157.008 14.7422 157.715 16.0135 157.85 17.6328ZM170.056 12.6364V16.4716H159.733V12.6364H170.056ZM161.895 8.71591H167.105V23.8544C167.105 24.174 167.154 24.4332 167.254 24.6321C167.36 24.8239 167.513 24.9624 167.712 25.0476C167.911 25.1257 168.149 25.1648 168.426 25.1648C168.625 25.1648 168.834 25.147 169.054 25.1115C169.282 25.0689 169.452 25.0334 169.566 25.005L170.354 28.7656C170.105 28.8366 169.754 28.9254 169.299 29.032C168.852 29.1385 168.316 29.206 167.691 29.2344C166.469 29.2912 165.422 29.1491 164.548 28.8082C163.681 28.4602 163.017 27.9205 162.556 27.1889C162.101 26.4574 161.881 25.5376 161.895 24.4297V8.71591Z" fill="white"/>
<path d="M222.609 140V136.207L230.567 129.24C231.163 128.7 231.671 128.207 232.09 127.759C232.509 127.305 232.829 126.85 233.049 126.396C233.269 125.934 233.379 125.433 233.379 124.893C233.379 124.29 233.248 123.775 232.985 123.349C232.722 122.915 232.36 122.582 231.898 122.347C231.437 122.113 230.908 121.996 230.311 121.996C229.707 121.996 229.178 122.12 228.724 122.369C228.269 122.61 227.914 122.962 227.658 123.423C227.41 123.885 227.286 124.446 227.286 125.107H222.289C222.289 123.622 222.623 122.34 223.29 121.261C223.958 120.181 224.896 119.35 226.103 118.768C227.317 118.178 228.727 117.884 230.332 117.884C231.987 117.884 233.425 118.161 234.647 118.714C235.869 119.268 236.813 120.043 237.481 121.037C238.156 122.024 238.493 123.171 238.493 124.478C238.493 125.309 238.326 126.133 237.992 126.95C237.658 127.766 237.058 128.668 236.192 129.656C235.332 130.643 234.111 131.825 232.527 133.203L229.917 135.611V135.749H238.759V140H222.609ZM246.992 130.668V140H241.782V123.636H246.736V126.641H246.917C247.279 125.639 247.897 124.854 248.771 124.286C249.644 123.711 250.685 123.423 251.892 123.423C253.043 123.423 254.041 123.683 254.886 124.201C255.738 124.712 256.399 125.43 256.867 126.353C257.343 127.269 257.578 128.342 257.57 129.57V140H252.361V130.593C252.368 129.684 252.137 128.974 251.669 128.462C251.207 127.951 250.564 127.695 249.74 127.695C249.193 127.695 248.71 127.816 248.291 128.058C247.879 128.292 247.56 128.629 247.333 129.07C247.112 129.51 246.999 130.043 246.992 130.668ZM266.772 140.234C265.565 140.234 264.468 139.922 263.48 139.297C262.493 138.672 261.705 137.734 261.115 136.484C260.526 135.234 260.231 133.683 260.231 131.829C260.231 129.904 260.537 128.32 261.147 127.077C261.758 125.835 262.557 124.915 263.544 124.318C264.539 123.722 265.608 123.423 266.751 123.423C267.61 123.423 268.346 123.572 268.956 123.871C269.567 124.162 270.071 124.538 270.469 125C270.867 125.462 271.169 125.941 271.375 126.438H271.481V118.182H276.691V140H271.534V137.347H271.375C271.154 137.852 270.842 138.324 270.437 138.764C270.032 139.205 269.525 139.56 268.914 139.83C268.31 140.099 267.596 140.234 266.772 140.234ZM268.583 136.175C269.216 136.175 269.755 135.998 270.203 135.643C270.65 135.281 270.995 134.773 271.236 134.119C271.478 133.466 271.598 132.699 271.598 131.818C271.598 130.923 271.478 130.153 271.236 129.506C271.002 128.86 270.657 128.363 270.203 128.015C269.755 127.667 269.216 127.493 268.583 127.493C267.937 127.493 267.39 127.67 266.943 128.026C266.495 128.381 266.154 128.881 265.92 129.528C265.693 130.174 265.579 130.937 265.579 131.818C265.579 132.699 265.696 133.466 265.931 134.119C266.165 134.773 266.502 135.281 266.943 135.643C267.39 135.998 267.937 136.175 268.583 136.175Z" fill="white"/>
<path d="M30.9077 239.298C29.2457 239.298 27.772 239.014 26.4865 238.446C25.2081 237.871 24.1996 237.079 23.4609 236.07C22.7223 235.062 22.3459 233.901 22.3317 232.587H27.6371C27.6584 233.062 27.8111 233.485 28.0952 233.854C28.3793 234.217 28.7663 234.501 29.2564 234.707C29.7464 234.913 30.304 235.016 30.929 235.016C31.554 235.016 32.1044 234.906 32.5803 234.685C33.0632 234.458 33.4396 234.149 33.7095 233.759C33.9794 233.361 34.1108 232.906 34.1037 232.395C34.1108 231.884 33.9652 231.429 33.6669 231.031C33.3686 230.634 32.946 230.325 32.3991 230.104C31.8594 229.884 31.2202 229.774 30.4815 229.774H28.3615V226.024H30.4815C31.1278 226.024 31.696 225.918 32.1861 225.705C32.6832 225.491 33.0703 225.193 33.3473 224.81C33.6243 224.419 33.7592 223.972 33.7521 223.467C33.7592 222.977 33.642 222.548 33.4006 222.178C33.1662 221.802 32.8359 221.511 32.4098 221.305C31.9908 221.099 31.5043 220.996 30.9503 220.996C30.3679 220.996 29.8388 221.099 29.3629 221.305C28.8942 221.511 28.5213 221.802 28.2443 222.178C27.9673 222.555 27.8217 222.991 27.8075 223.489H22.7685C22.7827 222.189 23.1449 221.045 23.8551 220.058C24.5653 219.064 25.5313 218.286 26.7528 217.725C27.9815 217.164 29.3807 216.884 30.9503 216.884C32.5128 216.884 33.8871 217.157 35.0732 217.704C36.2592 218.251 37.1825 218.996 37.843 219.941C38.5036 220.879 38.8338 221.94 38.8338 223.126C38.8409 224.355 38.4396 225.367 37.63 226.163C36.8274 226.958 35.794 227.448 34.5298 227.633V227.803C36.2202 228.002 37.495 228.549 38.3544 229.444C39.2209 230.339 39.6506 231.457 39.6435 232.8C39.6435 234.064 39.2706 235.186 38.5249 236.166C37.7862 237.139 36.7564 237.906 35.4354 238.467C34.1214 239.021 32.6122 239.298 30.9077 239.298ZM42.661 239V222.636H47.7214V225.619H47.8919C48.1902 224.54 48.6767 223.737 49.3514 223.212C50.0261 222.679 50.8109 222.413 51.7058 222.413C51.9473 222.413 52.1958 222.43 52.4515 222.466C52.7072 222.494 52.9451 222.54 53.1653 222.604V227.132C52.9167 227.047 52.59 226.979 52.1852 226.93C51.7875 226.88 51.4324 226.855 51.1199 226.855C50.502 226.855 49.9444 226.994 49.4473 227.271C48.9572 227.54 48.5701 227.92 48.286 228.411C48.0091 228.893 47.8706 229.462 47.8706 230.115V239H42.661ZM60.415 239.234C59.2076 239.234 58.1103 238.922 57.123 238.297C56.1358 237.672 55.3475 236.734 54.758 235.484C54.1685 234.234 53.8738 232.683 53.8738 230.829C53.8738 228.904 54.1792 227.32 54.79 226.077C55.4007 224.835 56.1998 223.915 57.187 223.318C58.1813 222.722 59.2502 222.423 60.3936 222.423C61.253 222.423 61.9881 222.572 62.5989 222.871C63.2097 223.162 63.714 223.538 64.1117 224C64.5094 224.462 64.8113 224.941 65.0172 225.438H65.1238V217.182H70.3333V239H65.177V236.347H65.0172C64.7971 236.852 64.4846 237.324 64.0797 237.764C63.6749 238.205 63.1671 238.56 62.5563 238.83C61.9526 239.099 61.2388 239.234 60.415 239.234ZM62.226 235.175C62.8581 235.175 63.3979 234.998 63.8453 234.643C64.2928 234.281 64.6373 233.773 64.8787 233.119C65.1202 232.466 65.2409 231.699 65.2409 230.818C65.2409 229.923 65.1202 229.153 64.8787 228.506C64.6444 227.86 64.2999 227.363 63.8453 227.015C63.3979 226.667 62.8581 226.493 62.226 226.493C61.5797 226.493 61.0328 226.67 60.5854 227.026C60.138 227.381 59.7971 227.881 59.5627 228.528C59.3354 229.174 59.2218 229.937 59.2218 230.818C59.2218 231.699 59.339 232.466 59.5733 233.119C59.8077 233.773 60.1451 234.281 60.5854 234.643C61.0328 234.998 61.5797 235.175 62.226 235.175Z" fill="white"/>
</svg>
