<svg width="746" height="508" viewBox="0 0 746 508" fill="none" xmlns="http://www.w3.org/2000/svg">
<path d="M727.158 507.026H18.502C13.6646 507.02 9.02703 504.989 5.60649 501.38C2.18595 497.771 0.261712 492.878 0.255859 487.774V26.7193C0.261708 22.98 1.67214 19.3955 4.17813 16.7514C6.68411 14.1073 10.0813 12.6191 13.6253 12.6129H731.803C735.408 12.6191 738.864 14.1331 741.414 16.8232C743.963 19.5133 745.398 23.16 745.404 26.9644V487.774C745.398 492.878 743.474 497.771 740.054 501.38C736.633 504.989 731.995 507.02 727.158 507.026Z" fill="#B48DBA"/>
<path d="M704.244 482.722H43.8017C34.1147 482.722 26.2412 474.939 26.2412 465.372V63.8814C26.2412 56.7757 32.0799 51.0468 39.2567 51.0468H708.579C715.866 51.0468 721.849 56.8807 721.849 64.1264V465.372C721.804 474.939 713.931 482.722 704.244 482.722Z" fill="black" fill-opacity="0.47"/>
<path d="M745.148 29.1112H0V19.3103C0.00585784 14.1887 1.93743 9.27893 5.37073 5.65855C8.80402 2.03818 13.4585 0.00308712 18.3124 0H726.836C731.69 0.00308712 736.344 2.03818 739.778 5.65855C743.211 9.27893 745.142 14.1887 745.148 19.3103V29.1112Z" fill="#703E78"/>
<path d="M33.2847 19.5787C35.8986 19.5787 38.0176 17.3429 38.0176 14.5849C38.0176 11.8269 35.8986 9.59106 33.2847 9.59106C30.6708 9.59106 28.5518 11.8269 28.5518 14.5849C28.5518 17.3429 30.6708 19.5787 33.2847 19.5787Z" fill="white"/>
<path d="M51.2544 19.5787C53.8683 19.5787 55.9873 17.3429 55.9873 14.5849C55.9873 11.8269 53.8683 9.59106 51.2544 9.59106C48.6405 9.59106 46.5215 11.8269 46.5215 14.5849C46.5215 17.3429 48.6405 19.5787 51.2544 19.5787Z" fill="white"/>
<path d="M69.2349 19.5787C71.8488 19.5787 73.9678 17.3429 73.9678 14.5849C73.9678 11.8269 71.8488 9.59106 69.2349 9.59106C66.621 9.59106 64.502 11.8269 64.502 14.5849C64.502 17.3429 66.621 19.5787 69.2349 19.5787Z" fill="white"/>
</svg>
