<svg width="783" height="505" viewBox="0 0 783 505" fill="none" xmlns="http://www.w3.org/2000/svg">
<rect width="783" height="505" fill="#1E1E1E"/>
<path d="M763.834 505H19.4336C14.3522 504.994 9.48076 502.972 5.88769 499.377C2.29463 495.782 0.273329 490.909 0.267181 485.825V26.6127C0.273325 22.8883 1.7549 19.3181 4.38729 16.6846C7.01967 14.051 10.5882 12.5688 14.3109 12.5626H768.712C772.5 12.5688 776.13 14.0767 778.808 16.7561C781.487 19.4354 782.994 23.0676 783 26.8567V485.825C782.994 490.909 780.973 495.782 777.38 499.377C773.787 502.972 768.915 504.994 763.834 505Z" fill="#F2F2F2" fill-opacity="0.19"/>
<path d="M739.765 480.793H46.011C35.8354 480.793 27.5648 473.042 27.5648 463.512V63.6263C27.5648 56.5489 33.698 50.8429 41.2368 50.8429H744.319C751.974 50.8429 758.258 56.6535 758.258 63.8703V463.512C758.212 473.042 749.941 480.793 739.765 480.793Z" fill="black" fill-opacity="0.47"/>
<path d="M782.733 28.995H0V19.2332C0.0061533 14.1321 2.03515 9.24194 5.64162 5.63603C9.24809 2.03013 14.1373 0.00316633 19.2361 9.15527e-05H763.497C768.595 0.00316633 773.485 2.03013 777.091 5.63603C780.698 9.24194 782.727 14.1321 782.733 19.2332V28.995Z" fill="#3F3D56"/>
<path d="M34.9642 19.5005C37.7099 19.5005 39.9358 17.2736 39.9358 14.5266C39.9358 11.7796 37.7099 9.55273 34.9642 9.55273C32.2184 9.55273 29.9925 11.7796 29.9925 14.5266C29.9925 17.2736 32.2184 19.5005 34.9642 19.5005Z" fill="white"/>
<path d="M53.8402 19.5005C56.5859 19.5005 58.8118 17.2736 58.8118 14.5266C58.8118 11.7796 56.5859 9.55273 53.8402 9.55273C51.0944 9.55273 48.8685 11.7796 48.8685 14.5266C48.8685 17.2736 51.0944 19.5005 53.8402 19.5005Z" fill="white"/>
<path d="M72.7278 19.5005C75.4736 19.5005 77.6995 17.2736 77.6995 14.5266C77.6995 11.7796 75.4736 9.55273 72.7278 9.55273C69.982 9.55273 67.7562 11.7796 67.7562 14.5266C67.7562 17.2736 69.982 19.5005 72.7278 19.5005Z" fill="white"/>
</svg>
