<svg width="119" height="128" viewBox="0 0 119 128" fill="none" xmlns="http://www.w3.org/2000/svg">
<path d="M47.0067 86.3944C46.4766 86.397 45.9512 86.2949 45.4606 86.094C44.97 85.893 44.5239 85.5972 44.1477 85.2235L25.1842 66.5193C24.8121 66.1534 24.516 65.7176 24.3128 65.2369C24.1095 64.7562 24.0033 64.24 24.0001 63.718C23.9969 63.1961 24.0968 62.6787 24.294 62.1955C24.4913 61.7123 24.7821 61.2729 25.1496 60.9024L25.1842 60.8679L44.07 42.2112C44.855 41.4352 45.914 41 47.0176 41C48.1211 41 49.1801 41.4352 49.9651 42.2112C50.7449 42.9978 51.1825 44.0608 51.1825 45.1687C51.1825 46.2766 50.7449 47.3396 49.9651 48.1262L35.9292 62.1986C35.4912 62.637 35.2451 63.2314 35.2451 63.8513C35.2451 64.4711 35.4912 65.0656 35.9292 65.5039L49.8874 79.4813C50.4447 80.0525 50.8218 80.775 50.9719 81.559C51.1219 82.343 51.0383 83.1538 50.7313 83.8905C50.4243 84.6273 49.9075 85.2575 49.2453 85.7027C48.583 86.1479 47.8046 86.3884 47.0067 86.3944Z" fill="#6C63FF"/>
<path d="M77.2246 86.3944C76.4267 86.3884 75.6483 86.1478 74.986 85.7026C74.3238 85.2574 73.8071 84.6273 73.5001 83.8905C73.1931 83.1538 73.1094 82.3429 73.2594 81.559C73.4095 80.775 73.7866 80.0525 74.344 79.4813L88.3021 65.5169C88.7402 65.0785 88.9863 64.4841 88.9863 63.8642C88.9863 63.2444 88.7402 62.6499 88.3021 62.2116L74.2705 48.1737C73.8825 47.7857 73.5746 47.325 73.3645 46.8179C73.1545 46.3108 73.0464 45.7673 73.0464 45.2184C73.0464 44.6695 73.1545 44.1259 73.3645 43.6188C73.5746 43.1117 73.8825 42.651 74.2705 42.263C75.0542 41.4862 76.1128 41.0505 77.2159 41.0505C78.3191 41.0505 79.3776 41.4862 80.1613 42.263L99.0471 60.9197C99.4164 61.2845 99.7101 61.7185 99.9117 62.197C100.113 62.6754 100.219 63.1888 100.222 63.708C100.225 64.2272 100.126 64.7419 99.9304 65.2228C99.7348 65.7037 99.4464 66.1413 99.0817 66.5107L99.0471 66.5495L80.0836 85.2797C79.3148 86.0139 78.2872 86.4146 77.2246 86.3944Z" fill="#6C63FF"/>
<rect width="70" height="6" rx="3" fill="#CECBFF"/>
<rect y="101" width="70" height="6" rx="3" fill="#CECBFF"/>
<rect y="10" width="70" height="6" rx="3" fill="#CECBFF"/>
<rect y="111" width="70" height="6" rx="3" fill="#CECBFF"/>
<rect x="77" y="10" width="42" height="6" rx="3" fill="#CECBFF"/>
<rect x="77" y="111" width="42" height="6" rx="3" fill="#CECBFF"/>
<rect y="21" width="17" height="6" rx="3" fill="#CECBFF"/>
<rect y="122" width="17" height="6" rx="3" fill="#CECBFF"/>
<rect x="24" y="21" width="95" height="6" rx="3" fill="#CECBFF"/>
<rect x="24" y="122" width="95" height="6" rx="3" fill="#CECBFF"/>
<rect x="77" width="20" height="6" rx="3" fill="#CECBFF"/>
<rect x="77" y="101" width="20" height="6" rx="3" fill="#CECBFF"/>
</svg>
