<svg width="203" height="103" viewBox="0 0 203 103" fill="none" xmlns="http://www.w3.org/2000/svg">
<path d="M3.93359 43.2406V11.2406H7.80859V25.4906H24.8711V11.2406H28.7461V43.2406H24.8711V28.9281H7.80859V43.2406H3.93359Z" fill="white"/>
<path d="M103.684 21.2406H99.8086C99.5794 20.126 99.1784 19.1468 98.6055 18.3031C98.043 17.4593 97.3555 16.751 96.543 16.1781C95.7409 15.5947 94.8503 15.1572 93.8711 14.8656C92.8919 14.5739 91.8711 14.4281 90.8086 14.4281C88.8711 14.4281 87.1159 14.9177 85.543 15.8968C83.9805 16.876 82.7357 18.3187 81.8086 20.2249C80.8919 22.1312 80.4336 24.4697 80.4336 27.2406C80.4336 30.0114 80.8919 32.3499 81.8086 34.2562C82.7357 36.1624 83.9805 37.6052 85.543 38.5843C87.1159 39.5635 88.8711 40.0531 90.8086 40.0531C91.8711 40.0531 92.8919 39.9072 93.8711 39.6156C94.8503 39.3239 95.7409 38.8916 96.543 38.3187C97.3555 37.7354 98.043 37.0218 98.6055 36.1781C99.1784 35.3239 99.5794 34.3447 99.8086 33.2406H103.684C103.392 34.876 102.861 36.3395 102.09 37.6312C101.319 38.9229 100.361 40.0218 99.2148 40.9281C98.069 41.8239 96.7826 42.5062 95.3555 42.9749C93.9388 43.4437 92.4232 43.6781 90.8086 43.6781C88.0794 43.6781 85.6523 43.0114 83.5273 41.6781C81.4023 40.3447 79.7305 38.4489 78.5117 35.9906C77.293 33.5322 76.6836 30.6156 76.6836 27.2406C76.6836 23.8656 77.293 20.9489 78.5117 18.4906C79.7305 16.0322 81.4023 14.1364 83.5273 12.8031C85.6523 11.4697 88.0794 10.8031 90.8086 10.8031C92.4232 10.8031 93.9388 11.0374 95.3555 11.5062C96.7826 11.9749 98.069 12.6624 99.2148 13.5687C100.361 14.4645 101.319 15.5583 102.09 16.8499C102.861 18.1312 103.392 19.5947 103.684 21.2406ZM109.945 43.2406V11.2406H113.82V27.1156H114.195L128.57 11.2406H133.633L120.195 25.6781L133.633 43.2406H128.945L117.82 28.3656L113.82 32.8656V43.2406H109.945Z" fill="white"/>
<path d="M76.1836 63.6781V60.2406H100.184V63.6781H90.1211V92.2406H86.2461V63.6781H76.1836ZM106.164 92.2406V60.2406H110.039V74.4906H127.102V60.2406H130.977V92.2406H127.102V77.9281H110.039V92.2406H106.164ZM165.734 76.2406C165.734 79.6156 165.125 82.5322 163.906 84.9906C162.688 87.4489 161.016 89.3447 158.891 90.6781C156.766 92.0114 154.339 92.6781 151.609 92.6781C148.88 92.6781 146.453 92.0114 144.328 90.6781C142.203 89.3447 140.531 87.4489 139.313 84.9906C138.094 82.5322 137.484 79.6156 137.484 76.2406C137.484 72.8656 138.094 69.9489 139.313 67.4906C140.531 65.0322 142.203 63.1364 144.328 61.8031C146.453 60.4697 148.88 59.8031 151.609 59.8031C154.339 59.8031 156.766 60.4697 158.891 61.8031C161.016 63.1364 162.688 65.0322 163.906 67.4906C165.125 69.9489 165.734 72.8656 165.734 76.2406ZM161.984 76.2406C161.984 73.4697 161.521 71.1312 160.594 69.2249C159.677 67.3187 158.432 65.876 156.859 64.8968C155.297 63.9177 153.547 63.4281 151.609 63.4281C149.672 63.4281 147.917 63.9177 146.344 64.8968C144.781 65.876 143.536 67.3187 142.609 69.2249C141.693 71.1312 141.234 73.4697 141.234 76.2406C141.234 79.0114 141.693 81.3499 142.609 83.2562C143.536 85.1624 144.781 86.6052 146.344 87.5843C147.917 88.5635 149.672 89.0531 151.609 89.0531C153.547 89.0531 155.297 88.5635 156.859 87.5843C158.432 86.6052 159.677 85.1624 160.594 83.2562C161.521 81.3499 161.984 79.0114 161.984 76.2406ZM197.625 60.2406V92.2406H193.875L176.438 67.1156H176.125V92.2406H172.25V60.2406H176L193.5 85.4281H193.812V60.2406H197.625Z" fill="#1E98BE"/>
<path d="M38.0586 38.0531L64.9961 28.5531V28.1781L38.0586 18.6781V14.6156L70.0586 26.3656V30.3656L38.0586 42.1156V38.0531Z" fill="#B7199E"/>
<path d="M67.0586 63.4281L40.1211 72.9281V73.3031L67.0586 82.8031V86.8656L35.0586 75.1156V71.1156L67.0586 59.3656V63.4281Z" fill="#B7199E"/>
</svg>
