<svg width="104" height="304" viewBox="0 0 104 304" fill="none" xmlns="http://www.w3.org/2000/svg">
<rect width="104" height="304" fill="#1E1E1E"/>
<g clip-path="url(#clip0_0_1)">
<path d="M27.0795 13.4748L24.4135 20.1337C24.4135 20.1337 21.9573 29.4335 24.8331 33.1551C27.7089 36.8768 28.3295 65.2905 25.2614 67.391C22.1933 69.4915 64.4384 47.9285 64.4384 47.9285C64.4384 47.9285 47.9355 9.77052 47.6558 9.63107C47.376 9.49161 36.5635 6.14473 36.5635 6.14473L27.0882 13.4748H27.0795Z" fill="#2F2E43"/>
<path d="M54.5961 46.3248L40.4357 50.9703V30.645H53.2849L54.5961 46.3248Z" fill="#F6A6A9"/>
<path d="M11.3108 161.723C10.5416 166.377 7.42983 169.706 4.31805 169.183C1.20626 168.66 -0.629312 164.433 0.139893 159.779C0.421688 157.913 1.16351 156.146 2.29889 154.637L5.79527 134.948L15.3491 136.943L10.8738 156.118C11.4626 157.92 11.5947 159.84 11.2584 161.705L11.3108 161.723Z" fill="#F6A6A9"/>
<path d="M49.2816 273.878H36.0128V292.643H49.2816V273.878Z" fill="#F6A6A9"/>
<path d="M23.0936 304C21.6951 304 20.4714 304 19.5186 303.869C16.0222 303.547 12.6307 300.958 10.9437 299.442C10.5731 299.11 10.3157 298.672 10.2076 298.187C10.0994 297.703 10.1459 297.197 10.3406 296.74C10.4799 296.409 10.6921 296.113 10.9614 295.875C11.2307 295.636 11.5502 295.461 11.8965 295.363L21.2056 292.748L36.2838 282.568L36.4498 282.873C37.271 284.328 37.9529 285.857 38.4865 287.44C38.5873 287.715 38.6262 288.01 38.6005 288.302C38.5748 288.594 38.4852 288.877 38.3379 289.131C38.1621 289.383 37.9202 289.582 37.6386 289.706C37.9096 290.002 38.7662 290.578 41.3972 290.987C45.2432 291.597 46.0474 287.623 46.0824 287.501V287.37L46.196 287.3C48.0229 286.124 49.1504 285.557 49.5438 285.706C49.7885 285.775 50.1906 285.897 51.292 296.722C51.8293 298.412 51.9522 300.205 51.6504 301.952C51.0822 304.567 39.7364 303.695 37.4638 303.442C37.4026 303.442 28.8977 304.052 23.0762 304.052L23.0936 304Z" fill="#2F2E43"/>
<path d="M87.0436 259.12L75.7849 266.121L85.7437 282.044L97.0024 275.042L87.0436 259.12Z" fill="#F6A6A9"/>
<path d="M72.1217 301.42C70.7796 301.413 69.4404 301.293 68.1183 301.063C67.6291 300.976 67.1789 300.739 66.8299 300.387C66.4808 300.034 66.2499 299.582 66.1691 299.093C66.1114 298.738 66.134 298.374 66.2354 298.029C66.3367 297.684 66.5141 297.365 66.7547 297.097L73.2493 289.941L80.6616 273.381L80.9676 273.547C82.4368 274.347 83.8269 275.284 85.1195 276.345C85.3518 276.525 85.5411 276.755 85.6741 277.017C85.8071 277.279 85.8803 277.568 85.8887 277.861C85.8824 278.173 85.7852 278.476 85.609 278.733C85.9936 278.82 87.025 278.864 89.4812 277.861C93.065 276.353 91.649 272.553 91.5791 272.388L91.5267 272.266L91.5879 272.144C92.5144 270.183 93.1874 269.128 93.5808 269.023C93.8255 268.954 94.2363 268.849 100.906 277.452C102.254 278.598 103.307 280.051 103.974 281.687C104.848 284.189 94.7608 289.418 92.7329 290.403C92.6717 290.456 82.0952 298.117 77.7596 300.296C75.9976 301.097 74.0749 301.484 72.1392 301.429L72.1217 301.42Z" fill="#2F2E43"/>
<path d="M59.0103 116.967H21.9136L18.5396 151.403L33.2856 278.654H52.2448L44.6664 205.136L75.4171 271.507L92.2696 259.75L68.2582 197.815C68.2582 197.815 76.8331 143.846 70.0938 130.398C63.3545 116.949 59.0539 116.958 59.0539 116.958L59.0103 116.967Z" fill="#2F2E43"/>
<path d="M77.5149 119.059H13.059L36.2313 43.0389H61.9297L77.5149 119.059Z" fill="#E6E6E6"/>
<path d="M40.2871 43.0476C40.2871 43.0476 24.2824 42.6292 22.5954 46.8303C20.9084 51.0313 1.11011 150.993 1.11011 150.993H14.1691L40.2871 43.0389V43.0476Z" fill="#E6E6E6"/>
<path d="M42.1926 36.2667C49.9842 36.2667 56.3006 29.9685 56.3006 22.1993C56.3006 14.4301 49.9842 8.13194 42.1926 8.13194C34.401 8.13194 28.0847 14.4301 28.0847 22.1993C28.0847 29.9685 34.401 36.2667 42.1926 36.2667Z" fill="#F6A6A9"/>
<path d="M44.9286 0.339961C44.9286 0.339961 61.921 -4.01796 67.1132 18.5387C67.1132 18.5387 67.253 24.4219 70.1987 26.8013C73.1444 29.1807 72.1654 41.5049 72.1654 41.5049C72.1654 41.5049 77.7859 50.7437 73.0395 54.9447C73.0395 54.9447 70.9329 63.4863 74.0185 68.3846C77.1041 73.2829 88.7645 100.241 69.3858 101.88C69.3858 101.88 59.561 95.9615 64.1937 78.3468C68.8264 60.7321 63.6342 50.9616 63.6342 50.9616C63.6342 50.9616 48.7746 45.5839 49.5962 34.0964C50.4179 22.609 40.0511 11.2784 39.3431 11.4352C38.6351 11.5921 31.3364 7.37365 28.111 20.2557L24.6146 19.6717C24.6146 19.6717 23.1636 -2.00459 44.9286 0.374832V0.339961Z" fill="#2F2E43"/>
<path d="M88.511 159.448C89.455 164.076 87.733 168.303 84.665 168.887C81.5969 169.471 78.354 166.203 77.41 161.574C77.0052 159.732 77.0684 157.817 77.5936 156.005L73.8699 136.368L83.485 134.852L86.1072 154.384C87.2986 155.862 88.1061 157.61 88.4586 159.474L88.511 159.448Z" fill="#F6A6A9"/>
<path d="M50.6976 43.1086C50.6976 43.1086 64.7968 41.3655 66.4838 45.5316C68.1708 49.6978 87.9691 149.703 87.9691 149.703H74.9101L50.7063 43.1086H50.6976Z" fill="#E6E6E6"/>
</g>
<defs>
<clipPath id="clip0_0_1">
<rect width="104" height="304" fill="white"/>
</clipPath>
</defs>
</svg>
