<svg width="95" height="295" viewBox="0 0 95 295" fill="none" xmlns="http://www.w3.org/2000/svg">
<rect width="95" height="295" fill="#1E1E1E"/>
<g clip-path="url(#clip0_0_1)">
<path d="M74.0781 45.3853C84.6751 45.3853 93.2656 36.8003 93.2656 26.21C93.2656 15.6198 84.6751 7.03471 74.0781 7.03471C63.4812 7.03471 54.8906 15.6198 54.8906 26.21C54.8906 36.8003 63.4812 45.3853 74.0781 45.3853Z" fill="#FFB8B8"/>
<path d="M9.24219 256.001L14.1016 264.254L48.25 249.451L41.0781 237.279L9.24219 256.001Z" fill="#FFB8B8"/>
<path d="M10.6953 252.316L20.2578 268.564C21.0588 269.923 21.584 271.426 21.8036 272.988C22.0231 274.55 21.9326 276.14 21.5372 277.667C21.1418 279.193 20.4493 280.628 19.4992 281.887C18.5491 283.146 17.3601 284.206 16 285.007L15.6641 285.209L0.0390625 258.609L10.6953 252.316Z" fill="#2F2E41"/>
<path d="M65.5312 285.725L75.1094 285.717L79.6719 248.803H65.5312V285.725Z" fill="#FFB8B8"/>
<path d="M63.0859 282.602H81.9531C83.5313 282.601 85.0943 282.911 86.5525 283.514C88.0108 284.117 89.3358 285.001 90.4517 286.117C91.5677 287.232 92.4527 288.556 93.0562 290.013C93.6597 291.471 93.9698 293.033 93.9687 294.61V295H63.0859V282.602Z" fill="#2F2E41"/>
<path d="M27.0234 263.356C26.4729 263.356 25.93 263.227 25.4387 262.979C24.9474 262.731 24.5215 262.371 24.1953 261.927L14.9531 249.388C14.6814 249.015 14.4861 248.591 14.3783 248.142C14.2704 247.693 14.2523 247.227 14.3249 246.771C14.3974 246.315 14.5593 245.878 14.8011 245.484C15.043 245.091 15.3601 244.748 15.7344 244.478L15.8672 244.384L56.9688 216.948L32.1406 151.771L85.1719 156.143L86.9375 212.131C87.112 217.228 85.8954 222.277 83.4182 226.736C80.9409 231.195 77.2964 234.896 72.875 237.443L28.7812 262.88C28.2468 263.189 27.6409 263.353 27.0234 263.356Z" fill="#2F2E41"/>
<path d="M65.8438 278.23C64.934 278.228 64.0602 277.874 63.406 277.242C62.7518 276.61 62.3683 275.75 62.3359 274.841L60.375 220.282L84.4453 219.009L82.5313 273.967C82.502 274.837 82.1498 275.665 81.5433 276.29C80.9368 276.915 80.1193 277.292 79.25 277.347L66.0703 278.222L65.8438 278.23Z" fill="#2F2E41"/>
<path d="M91.3125 166.98C85.1875 166.98 63.8047 160.094 56.375 157.611C55.2656 158.501 49.1641 163.076 42.0391 162.225C37.6406 161.71 33.7734 159.227 30.5391 154.839C23.3906 145.173 32.25 103.606 40.8828 70.4475C42.6199 63.7443 46.8896 57.9752 52.7945 54.3526C58.6994 50.7301 65.7796 49.5364 72.5469 51.0224C77.4475 52.1044 81.9496 54.5294 85.5484 58.0252C89.1472 61.5211 91.7005 65.9497 92.9219 70.8145C94.5547 77.4509 93.1563 85.2506 92.1406 90.9501C91.6641 93.6359 91.2813 95.7517 91.4141 96.7901C91.9141 100.811 94.7109 163.849 92.9141 166.543C92.7031 166.847 92.1484 166.98 91.3125 166.98Z" fill="#6C63FF"/>
<path d="M68.9141 167.089C70.6925 165.761 71.872 163.783 72.1941 161.588C72.5163 159.393 71.9548 157.16 70.6328 155.378C70.3383 154.982 70.0088 154.614 69.6484 154.277L70.0234 77.8881L52.0547 80.8784L57.3437 155.05C56.0304 156.645 55.3482 158.665 55.4266 160.729C55.5051 162.793 56.3386 164.756 57.7692 166.246C59.1998 167.737 61.128 168.65 63.188 168.815C65.248 168.979 67.2966 168.381 68.9453 167.136L68.9141 167.089Z" fill="#FFB8B8"/>
<path d="M73.0781 126.919H53.6797C52.7539 126.915 51.8667 126.548 51.2092 125.897C50.5517 125.246 50.1763 124.362 50.1641 123.437L49.6953 70.9004C49.6789 69.0958 50.0183 67.3057 50.6941 65.6323C51.37 63.9588 52.369 62.4348 53.6342 61.1472C54.8994 59.8597 56.406 58.8337 58.0679 58.128C59.7299 57.4223 61.5146 57.0506 63.3203 57.0342C65.126 57.0178 66.9172 57.3569 68.5917 58.0324C70.2662 58.7078 71.7912 59.7062 73.0796 60.9706C74.3681 62.235 75.3947 63.7406 76.1008 65.4015C76.807 67.0624 77.1789 68.846 77.1953 70.6505V70.9316L76.5937 123.445C76.5794 124.369 76.2032 125.25 75.5459 125.9C74.8886 126.549 74.0026 126.915 73.0781 126.919Z" fill="#6C63FF"/>
<path d="M69.1875 45.3072C60.3984 45.3072 52.1172 38.382 50.5937 29.739C50.0474 26.3456 50.2934 22.8719 51.3125 19.5892C53.371 12.6544 58.0968 6.81817 64.4541 3.35982C70.8113 -0.098518 78.2813 -0.896791 85.2266 1.14001C86.4321 1.49665 87.6119 1.93489 88.7578 2.45168C91.1016 3.51351 93.4453 5.04378 94.5 7.38604C95.5547 9.7283 94.9062 12.9997 92.5469 14.0537C90.9844 14.7486 89.0781 14.405 87.7187 15.3966C85.7578 16.8176 86.2578 19.8391 87.1328 22.0954C88.0078 24.3518 89 27.0845 87.5312 29.0051C86.1641 30.8009 83.4297 30.7462 81.2812 30.0748C79.1328 29.4033 77 28.2634 74.7578 28.5132C71.4844 28.849 69.1328 32.0969 68.6953 35.3604C68.2578 38.624 69.2812 41.8798 70.2578 45.0106L69.1875 45.3072Z" fill="#2F2E41"/>
</g>
<defs>
<clipPath id="clip0_0_1">
<rect width="95" height="295" fill="white"/>
</clipPath>
</defs>
</svg>
