<svg width="119" height="128" viewBox="0 0 119 128" fill="none" xmlns="http://www.w3.org/2000/svg">
<rect width="119" height="128" fill="#1E1E1E"/>
<path d="M53.2846 16.5763H2.8374C2.08487 16.5763 1.36317 16.2773 0.831048 15.7449C0.298931 15.2125 0 14.4905 0 13.7376C0 12.9848 0.298931 12.2628 0.831048 11.7304C1.36317 11.198 2.08487 10.899 2.8374 10.899H53.2846C54.0371 10.899 54.7588 11.198 55.2909 11.7304C55.823 12.2628 56.122 12.9848 56.122 13.7376C56.122 14.4905 55.823 15.2125 55.2909 15.7449C54.7588 16.2773 54.0371 16.5763 53.2846 16.5763Z" fill="#CCCCCC"/>
<path d="M115.971 16.5763H65.5455C64.7929 16.5763 64.0712 16.2773 63.5391 15.7449C63.007 15.2125 62.708 14.4905 62.708 13.7376C62.708 12.9848 63.007 12.2628 63.5391 11.7304C64.0712 11.198 64.7929 10.899 65.5455 10.899H115.971C116.344 10.899 116.713 10.9724 117.057 11.115C117.401 11.2577 117.714 11.4668 117.977 11.7304C118.241 11.994 118.45 12.3069 118.592 12.6513C118.735 12.9957 118.808 13.3649 118.808 13.7376C118.808 14.1104 118.735 14.4796 118.592 14.824C118.45 15.1684 118.241 15.4813 117.977 15.7449C117.714 16.0085 117.401 16.2176 117.057 16.3602C116.713 16.5029 116.344 16.5763 115.971 16.5763Z" fill="#CCCCCC"/>
<path d="M115.971 27.3262H28.21C27.4772 27.2976 26.7839 26.9862 26.2756 26.4574C25.7672 25.9285 25.4833 25.2233 25.4833 24.4897C25.4833 23.756 25.7672 23.0508 26.2756 22.5219C26.7839 21.9931 27.4772 21.6817 28.21 21.6531H115.971C116.704 21.6817 117.397 21.9931 117.905 22.5219C118.414 23.0508 118.698 23.756 118.698 24.4897C118.698 25.2233 118.414 25.9285 117.905 26.4574C117.397 26.9862 116.704 27.2976 115.971 27.3262Z" fill="#CCCCCC"/>
<path d="M53.2846 5.67527H2.8374C2.10459 5.64665 1.41133 5.33528 0.902972 4.80646C0.394619 4.27764 0.110672 3.57244 0.110672 2.83875C0.110672 2.10505 0.394619 1.39985 0.902972 0.871031C1.41133 0.342209 2.10459 0.0308402 2.8374 0.00222149H53.2846C53.6662 -0.0126829 54.0469 0.0496491 54.4039 0.185482C54.7609 0.321315 55.0868 0.527856 55.3621 0.792721C55.6374 1.05759 55.8564 1.37532 56.006 1.7269C56.1556 2.07847 56.2327 2.45664 56.2327 2.83875C56.2327 3.22085 56.1556 3.59902 56.006 3.95059C55.8564 4.30217 55.6374 4.6199 55.3621 4.88477C55.0868 5.14963 54.7609 5.35618 54.4039 5.49201C54.0469 5.62784 53.6662 5.69017 53.2846 5.67527Z" fill="#CCCCCC"/>
<path d="M81.0454 5.82218H66.7159C65.983 5.79356 65.2898 5.48219 64.7814 4.95337C64.2731 4.42455 63.9891 3.71935 63.9891 2.98566C63.9891 2.25196 64.2731 1.54676 64.7814 1.01794C65.2898 0.489121 65.983 0.177752 66.7159 0.149133H81.0454C81.4271 0.134229 81.8078 0.196561 82.1647 0.332394C82.5217 0.468227 82.8476 0.674767 83.1229 0.939633C83.3982 1.2045 83.6172 1.52224 83.7668 1.87381C83.9164 2.22538 83.9935 2.60355 83.9935 2.98566C83.9935 3.36776 83.9164 3.74593 83.7668 4.0975C83.6172 4.44908 83.3982 4.76682 83.1229 5.03168C82.8476 5.29655 82.5217 5.50309 82.1647 5.63892C81.8078 5.77475 81.4271 5.83709 81.0454 5.82218Z" fill="#CCCCCC"/>
<path d="M17.1756 27.3262H2.8374C2.10459 27.2976 1.41133 26.9862 0.902972 26.4574C0.394619 25.9285 0.110672 25.2234 0.110672 24.4897C0.110672 23.756 0.394619 23.0508 0.902972 22.5219C1.41133 21.9931 2.10459 21.6818 2.8374 21.6531H17.1756C17.5573 21.6382 17.938 21.7006 18.295 21.8364C18.6519 21.9722 18.9778 22.1788 19.2531 22.4436C19.5284 22.7085 19.7474 23.0262 19.897 23.3778C20.0466 23.7294 20.1237 24.1076 20.1237 24.4897C20.1237 24.8718 20.0466 25.2499 19.897 25.6015C19.7474 25.9531 19.5284 26.2708 19.2531 26.5357C18.9778 26.8005 18.6519 27.0071 18.295 27.1429C17.938 27.2788 17.5573 27.3411 17.1756 27.3262Z" fill="#CCCCCC"/>
<path d="M53.2846 117.248H2.8374C2.08487 117.248 1.36317 116.949 0.831048 116.417C0.298931 115.884 0 115.162 0 114.409C0 113.656 0.298931 112.934 0.831048 112.402C1.36317 111.87 2.08487 111.571 2.8374 111.571H53.2846C54.0371 111.571 54.7588 111.87 55.2909 112.402C55.823 112.934 56.122 113.656 56.122 114.409C56.122 115.162 55.823 115.884 55.2909 116.417C54.7588 116.949 54.0371 117.248 53.2846 117.248Z" fill="#CCCCCC"/>
<path d="M115.971 117.248H65.5455C64.7929 117.248 64.0712 116.949 63.5391 116.417C63.007 115.884 62.708 115.162 62.708 114.409C62.708 113.656 63.007 112.934 63.5391 112.402C64.0712 111.87 64.7929 111.571 65.5455 111.571H115.971C116.724 111.571 117.445 111.87 117.977 112.402C118.51 112.934 118.808 113.656 118.808 114.409C118.808 115.162 118.51 115.884 117.977 116.417C117.445 116.949 116.724 117.248 115.971 117.248Z" fill="#CCCCCC"/>
<path d="M115.971 127.998H28.21C27.4772 127.969 26.7839 127.658 26.2756 127.129C25.7672 126.6 25.4833 125.895 25.4833 125.161C25.4833 124.428 25.7672 123.722 26.2756 123.194C26.7839 122.665 27.4772 122.353 28.21 122.325H115.971C116.704 122.353 117.397 122.665 117.905 123.194C118.414 123.722 118.698 124.428 118.698 125.161C118.698 125.895 118.414 126.6 117.905 127.129C117.397 127.658 116.704 127.969 115.971 127.998Z" fill="#CCCCCC"/>
<path d="M53.2846 106.347H2.8374C2.10459 106.318 1.41133 106.007 0.902972 105.478C0.394619 104.949 0.110672 104.244 0.110672 103.51C0.110672 102.777 0.394619 102.072 0.902972 101.543C1.41133 101.014 2.10459 100.703 2.8374 100.674H53.2846C53.6662 100.659 54.0469 100.721 54.4039 100.857C54.7609 100.993 55.0868 101.2 55.3621 101.464C55.6374 101.729 55.8564 102.047 56.006 102.399C56.1556 102.75 56.2327 103.128 56.2327 103.51C56.2327 103.893 56.1556 104.271 56.006 104.622C55.8564 104.974 55.6374 105.292 55.3621 105.557C55.0868 105.821 54.7609 106.028 54.4039 106.164C54.0469 106.3 53.6662 106.362 53.2846 106.347Z" fill="#CCCCCC"/>
<path d="M81.0454 106.494H66.7159C65.983 106.465 65.2898 106.154 64.7814 105.625C64.2731 105.096 63.9891 104.391 63.9891 103.657C63.9891 102.924 64.2731 102.218 64.7814 101.69C65.2898 101.161 65.983 100.849 66.7159 100.821H81.0454C81.4271 100.806 81.8078 100.868 82.1647 101.004C82.5217 101.14 82.8476 101.346 83.1229 101.611C83.3982 101.876 83.6172 102.194 83.7668 102.545C83.9164 102.897 83.9935 103.275 83.9935 103.657C83.9935 104.039 83.9164 104.418 83.7668 104.769C83.6172 105.121 83.3982 105.439 83.1229 105.703C82.8476 105.968 82.5217 106.175 82.1647 106.311C81.8078 106.446 81.4271 106.509 81.0454 106.494Z" fill="#CCCCCC"/>
<path d="M17.1756 127.998H2.8374C2.10459 127.969 1.41133 127.658 0.902972 127.129C0.394619 126.6 0.110672 125.895 0.110672 125.161C0.110672 124.428 0.394619 123.722 0.902972 123.194C1.41133 122.665 2.10459 122.353 2.8374 122.325H17.1756C17.5573 122.31 17.938 122.372 18.295 122.508C18.6519 122.644 18.9778 122.85 19.2531 123.115C19.5284 123.38 19.7474 123.698 19.897 124.05C20.0466 124.401 20.1237 124.779 20.1237 125.161C20.1237 125.543 20.0466 125.922 19.897 126.273C19.7474 126.625 19.5284 126.943 19.2531 127.207C18.9778 127.472 18.6519 127.679 18.295 127.815C17.938 127.95 17.5573 128.013 17.1756 127.998Z" fill="#CCCCCC"/>
<path d="M40.1081 86.7743C39.578 86.7769 39.0526 86.6748 38.562 86.4739C38.0714 86.273 37.6252 85.9772 37.2491 85.6034L18.2855 66.8992C17.9135 66.5334 17.6173 66.0975 17.4141 65.6168C17.2109 65.1361 17.1046 64.6199 17.1014 64.098C17.0982 63.576 17.1981 63.0586 17.3954 62.5754C17.5927 62.0922 17.8834 61.6528 18.251 61.2824L18.2855 61.2478L37.1714 42.5911C37.9563 41.8151 39.0154 41.3799 40.1189 41.3799C41.2224 41.3799 42.2815 41.8151 43.0664 42.5911C43.8463 43.3777 44.2839 44.4407 44.2839 45.5486C44.2839 46.6565 43.8463 47.7195 43.0664 48.5061L29.0305 62.5786C28.5925 63.0169 28.3464 63.6114 28.3464 64.2312C28.3464 64.8511 28.5925 65.4455 29.0305 65.8839L42.9887 79.8613C43.546 80.4324 43.9232 81.1549 44.0732 81.9389C44.2233 82.7229 44.1396 83.5337 43.8326 84.2705C43.5256 85.0072 43.0088 85.6374 42.3466 86.0826C41.6844 86.5278 40.9059 86.7683 40.1081 86.7743Z" fill="#6C63FF"/>
<path d="M70.3263 86.7743C69.5285 86.7683 68.75 86.5278 68.0878 86.0826C67.4256 85.6374 66.9088 85.0072 66.6018 84.2705C66.2948 83.5337 66.2111 82.7229 66.3612 81.9389C66.5112 81.1549 66.8884 80.4324 67.4457 79.8612L81.4039 65.8968C81.8419 65.4585 82.088 64.864 82.088 64.2442C82.088 63.6243 81.8419 63.0299 81.4039 62.5915L67.3723 48.5536C66.9842 48.1656 66.6763 47.7049 66.4663 47.1978C66.2562 46.6907 66.1481 46.1472 66.1481 45.5983C66.1481 45.0494 66.2562 44.5059 66.4663 43.9988C66.6763 43.4917 66.9842 43.031 67.3723 42.643C68.156 41.8662 69.2145 41.4304 70.3177 41.4304C71.4208 41.4304 72.4794 41.8662 73.263 42.643L92.1489 61.2996C92.5181 61.6645 92.8119 62.0985 93.0134 62.5769C93.215 63.0553 93.3204 63.5688 93.3236 64.088C93.3268 64.6071 93.2278 65.1218 93.0321 65.6027C92.8365 66.0836 92.5481 66.5212 92.1834 66.8906L92.1489 66.9295L73.1853 85.6596C72.4166 86.3939 71.389 86.7945 70.3263 86.7743Z" fill="#6C63FF"/>
</svg>
