<svg width="1450" height="450" viewBox="0 0 1450 450" fill="none" xmlns="http://www.w3.org/2000/svg">
<rect width="1450" height="450" fill="#1E1E1E"/>
<path fill-rule="evenodd" clip-rule="evenodd" d="M0 108L15.7083 90C30.2083 72 60.4167 36 90.625 78C120.833 120 151.042 240 181.25 282C211.458 324 241.667 288 271.875 288C302.083 288 332.292 324 362.5 300C392.708 276 422.917 192 453.125 168C483.333 144 513.542 180 543.75 180C573.958 180 604.167 144 634.375 168C664.583 192 694.792 276 725 288C755.208 300 785.417 240 815.625 198C845.833 156 876.042 132 906.25 114C936.458 96 966.667 84 996.875 102C1027.08 120 1057.29 168 1087.5 168C1117.71 168 1147.92 120 1178.13 90C1208.33 60 1238.54 48 1268.75 90C1298.96 132 1329.17 228 1359.38 222C1389.58 216 1419.79 108 1435.5 54L1450 0V360H1435.5C1419.79 360 1389.58 360 1359.38 360C1329.17 360 1298.96 360 1268.75 360C1238.54 360 1208.33 360 1178.13 360C1147.92 360 1117.71 360 1087.5 360C1057.29 360 1027.08 360 996.875 360C966.667 360 936.458 360 906.25 360C876.042 360 845.833 360 815.625 360C785.417 360 755.208 360 725 360C694.792 360 664.583 360 634.375 360C604.167 360 573.958 360 543.75 360C513.542 360 483.333 360 453.125 360C422.917 360 392.708 360 362.5 360C332.292 360 302.083 360 271.875 360C241.667 360 211.458 360 181.25 360C151.042 360 120.833 360 90.625 360C60.4167 360 30.2083 360 15.7083 360H0V108Z" fill="#053B8C" fill-opacity="0.83"/>
<path fill-rule="evenodd" clip-rule="evenodd" d="M0 108L15.7083 90C30.2083 72 60.4167 36 90.625 78C120.833 120 151.042 240 181.25 282C211.458 324 241.667 288 271.875 288C302.083 288 332.292 324 362.5 300C392.708 276 422.917 192 453.125 168C483.333 144 513.542 180 543.75 180C573.958 180 604.167 144 634.375 168C664.583 192 694.792 276 725 288C755.208 300 785.417 240 815.625 198C845.833 156 876.042 132 906.25 114C936.458 96 966.667 84 996.875 102C1027.08 120 1057.29 168 1087.5 168C1117.71 168 1147.92 120 1178.13 90C1208.33 60 1238.54 48 1268.75 90C1298.96 132 1329.17 228 1359.38 222C1389.58 216 1419.79 108 1435.5 54L1450 0V360H1435.5C1419.79 360 1389.58 360 1359.38 360C1329.17 360 1298.96 360 1268.75 360C1238.54 360 1208.33 360 1178.13 360C1147.92 360 1117.71 360 1087.5 360C1057.29 360 1027.08 360 996.875 360C966.667 360 936.458 360 906.25 360C876.042 360 845.833 360 815.625 360C785.417 360 755.208 360 725 360C694.792 360 664.583 360 634.375 360C604.167 360 573.958 360 543.75 360C513.542 360 483.333 360 453.125 360C422.917 360 392.708 360 362.5 360C332.292 360 302.083 360 271.875 360C241.667 360 211.458 360 181.25 360C151.042 360 120.833 360 90.625 360C60.4167 360 30.2083 360 15.7083 360H0V108Z" fill="#0099FF" fill-opacity="0.48"/>
<path fill-rule="evenodd" clip-rule="evenodd" d="M0 148L15.7083 130C30.2083 112 60.4167 76 90.625 118C120.833 160 151.042 280 181.25 322C211.458 364 241.667 328 271.875 328C302.083 328 332.292 364 362.5 340C392.708 316 422.917 232 453.125 208C483.333 184 513.542 220 543.75 220C573.958 220 604.167 184 634.375 208C664.583 232 694.792 316 725 328C755.208 340 785.417 280 815.625 238C845.833 196 876.042 172 906.25 154C936.458 136 966.667 124 996.875 142C1027.08 160 1057.29 208 1087.5 208C1117.71 208 1147.92 160 1178.13 130C1208.33 100 1238.54 88 1268.75 130C1298.96 172 1329.17 268 1359.38 262C1389.58 256 1419.79 148 1435.5 94L1450 40V400H1435.5C1419.79 400 1389.58 400 1359.38 400C1329.17 400 1298.96 400 1268.75 400C1238.54 400 1208.33 400 1178.13 400C1147.92 400 1117.71 400 1087.5 400C1057.29 400 1027.08 400 996.875 400C966.667 400 936.458 400 906.25 400C876.042 400 845.833 400 815.625 400C785.417 400 755.208 400 725 400C694.792 400 664.583 400 634.375 400C604.167 400 573.958 400 543.75 400C513.542 400 483.333 400 453.125 400C422.917 400 392.708 400 362.5 400C332.292 400 302.083 400 271.875 400C241.667 400 211.458 400 181.25 400C151.042 400 120.833 400 90.625 400C60.4167 400 30.2083 400 15.7083 400H0V148Z" fill="#06367E"/>
<path fill-rule="evenodd" clip-rule="evenodd" d="M0 198L15.7083 180C30.2083 162 60.4167 126 90.625 168C120.833 210 151.042 330 181.25 372C211.458 414 241.667 378 271.875 378C302.083 378 332.292 414 362.5 390C392.708 366 422.917 282 453.125 258C483.333 234 513.542 270 543.75 270C573.958 270 604.167 234 634.375 258C664.583 282 694.792 366 725 378C755.208 390 785.417 330 815.625 288C845.833 246 876.042 222 906.25 204C936.458 186 966.667 174 996.875 192C1027.08 210 1057.29 258 1087.5 258C1117.71 258 1147.92 210 1178.13 180C1208.33 150 1238.54 138 1268.75 180C1298.96 222 1329.17 318 1359.38 312C1389.58 306 1419.79 198 1435.5 144L1450 90V450H1435.5C1419.79 450 1389.58 450 1359.38 450C1329.17 450 1298.96 450 1268.75 450C1238.54 450 1208.33 450 1178.13 450C1147.92 450 1117.71 450 1087.5 450C1057.29 450 1027.08 450 996.875 450C966.667 450 936.458 450 906.25 450C876.042 450 845.833 450 815.625 450C785.417 450 755.208 450 725 450C694.792 450 664.583 450 634.375 450C604.167 450 573.958 450 543.75 450C513.542 450 483.333 450 453.125 450C422.917 450 392.708 450 362.5 450C332.292 450 302.083 450 271.875 450C241.667 450 211.458 450 181.25 450C151.042 450 120.833 450 90.625 450C60.4167 450 30.2083 450 15.7083 450H0V198Z" fill="#063376"/>
</svg>
