<svg width="713" height="73" viewBox="0 0 713 73" fill="none" xmlns="http://www.w3.org/2000/svg">
<path d="M6.65469 39L31.1347 63.48L28.1747 66.84L0.174688 39L27.7747 11.08L30.7347 14.44L6.65469 39ZM672.581 4.68C668.261 16.1467 664.021 27.48 659.861 38.68C655.754 49.8267 651.541 61.1333 647.221 72.6H643.301C647.514 61.1333 651.701 49.8267 655.861 38.68C660.021 27.48 664.208 16.1467 668.421 4.68H672.581ZM685.388 11.08L712.908 39L684.988 66.84L681.948 63.48L706.508 39L682.348 14.44L685.388 11.08Z" fill="#B58EBC"/>
<path d="M119.473 10.68C120.273 12.9733 121.073 15.24 121.873 17.48C122.673 19.72 123.447 22.04 124.193 24.44C123.767 24.5467 123.367 24.68 122.993 24.84C122.673 25 122.3 25.1333 121.873 25.24C120.86 23 119.873 21.1867 118.913 19.8C118.007 18.36 117.1 17.2133 116.193 16.36C115.02 15.2933 113.633 14.5733 112.033 14.2C110.433 13.8267 108.86 13.64 107.313 13.64C104.22 13.64 102.193 13.88 101.233 14.36C100.167 14.84 99.6334 15.8 99.6334 17.24V59.72C99.6334 61.2667 100.22 62.36 101.393 63C102.46 63.5867 104.78 63.88 108.353 63.88V66.44H85.7934V63.88C88.9934 63.88 91.1534 63.6133 92.2734 63.08C93.7668 62.3867 94.5134 61.2667 94.5134 59.72V16.6C94.5134 15.48 94.0868 14.7067 93.2334 14.28C92.4334 13.8533 90.8068 13.64 88.3534 13.64C86.4868 13.64 84.5668 13.8 82.5934 14.12C80.6734 14.44 79.0201 15.1867 77.6334 16.36C77.0468 16.84 76.4868 17.4267 75.9534 18.12C75.4201 18.76 74.8068 19.6133 74.1134 20.68C73.6868 21.3733 73.2868 22.0667 72.9134 22.76C72.5401 23.4 72.1401 24.0933 71.7134 24.84C71.3934 24.68 71.0734 24.5467 70.7534 24.44C70.4868 24.28 70.1934 24.12 69.8734 23.96C70.6734 21.72 71.4734 19.5067 72.2734 17.32C73.0734 15.1333 73.8734 12.92 74.6734 10.68H119.473ZM166.933 56.84C167.199 57.0533 167.466 57.2667 167.733 57.48C168.053 57.6933 168.346 57.9067 168.613 58.12C167.333 60.04 165.919 61.64 164.373 62.92C162.826 64.2 161.173 65.2667 159.413 66.12C157.013 67.2933 154.426 67.88 151.653 67.88C146.373 67.88 142.053 66.2 138.693 62.84C135.119 59.2667 133.333 54.44 133.333 48.36C133.333 42.4933 135.039 37.7733 138.453 34.2C141.813 30.52 146.079 28.68 151.253 28.68C156.426 28.68 160.506 30.1733 163.493 33.16C166.693 36.2 168.293 40.6 168.293 46.36C163.333 46.52 158.453 46.7067 153.653 46.92C148.853 47.08 143.946 47.24 138.933 47.4C138.933 47.6133 138.906 47.8267 138.853 48.04C138.853 48.2 138.853 48.3867 138.853 48.6C138.853 50.84 139.146 52.8667 139.733 54.68C140.373 56.4933 141.279 58.12 142.453 59.56C144.906 62.76 148.346 64.36 152.773 64.36C155.119 64.36 157.573 63.7467 160.133 62.52C161.306 61.8267 162.453 61.0267 163.573 60.12C164.746 59.16 165.866 58.0667 166.933 56.84ZM139.093 44.36C143.093 44.2533 147.039 44.12 150.933 43.96C154.826 43.8 158.773 43.6667 162.773 43.56C162.719 40.04 161.626 37.2133 159.493 35.08C157.306 32.7333 154.559 31.56 151.253 31.56C148.053 31.56 145.253 32.84 142.853 35.4C140.613 37.7467 139.359 40.7333 139.093 44.36ZM210.95 56.84C211.216 57.0533 211.483 57.24 211.75 57.4C212.016 57.56 212.283 57.7467 212.55 57.96C208.656 64.5733 203.43 67.88 196.87 67.88C192.176 67.88 188.176 66.2267 184.87 62.92C181.563 59.2933 179.91 54.7333 179.91 49.24C179.91 43.5333 181.723 38.6267 185.35 34.52C188.87 30.68 193.27 28.76 198.55 28.76C201.696 28.76 204.443 29.3733 206.79 30.6C207.643 31.0267 208.416 31.5333 209.11 32.12C209.856 32.7067 210.47 33.4 210.95 34.2C211.483 35.1067 211.75 36.0133 211.75 36.92C211.75 37.88 211.483 38.7867 210.95 39.64C210.416 40.4933 209.616 40.92 208.55 40.92C206.63 40.92 205.35 39.4267 204.71 36.44C204.55 35.64 204.23 34.9733 203.75 34.44C203.27 33.9067 202.683 33.4267 201.99 33C200.603 32.1467 198.896 31.72 196.87 31.72C193.83 31.72 191.136 33.2933 188.79 36.44C186.443 39.7467 185.27 43.64 185.27 48.12C185.27 50.52 185.563 52.7067 186.15 54.68C186.79 56.6533 187.723 58.36 188.95 59.8C191.456 62.7867 194.576 64.28 198.31 64.28C202.896 64.28 207.11 61.8 210.95 56.84ZM262.44 66.44H246.6V63.8C248.787 63.8 250.334 63.5067 251.24 62.92C251.88 62.3867 252.2 61.4267 252.2 60.04V40.12C252.2 35.32 249.614 32.92 244.44 32.92C240.76 32.92 236.974 34.4667 233.08 37.56V60.04C233.08 61.4267 233.427 62.3867 234.12 62.92C235.027 63.5067 236.52 63.8 238.6 63.8V66.44H222.92V63.8C224.947 63.8 226.414 63.5067 227.32 62.92C227.907 62.3333 228.2 61.3733 228.2 60.04V19.16C228.2 17.6667 227.934 16.68 227.4 16.2C226.814 15.6667 225.4 15.4 223.16 15.4C223.107 15.1333 223.054 14.8933 223 14.68C223 14.4133 222.974 14.1467 222.92 13.88C224.627 13.1867 226.307 12.52 227.96 11.88C229.667 11.1867 231.374 10.4933 233.08 9.8V34.12C237.667 30.4933 242.067 28.68 246.28 28.68C249.8 28.68 252.494 29.5867 254.36 31.4C256.174 33.2667 257.08 35.9067 257.08 39.32V60.04C257.08 61.48 257.374 62.44 257.96 62.92C259.027 63.5067 260.52 63.8 262.44 63.8V66.44ZM325.188 66.52H306.708V63.88C309.001 63.88 310.654 63.5333 311.668 62.84C312.628 62.1467 313.108 60.9733 313.108 59.32V38.28H284.628V59.32C284.628 61.08 285.001 62.2533 285.748 62.84C286.761 63.5333 288.574 63.88 291.188 63.88V66.52H272.788V63.88C275.614 63.88 277.508 63.48 278.468 62.68C279.161 61.9867 279.508 60.8667 279.508 59.32V17.48C279.508 15.9333 279.134 14.8667 278.388 14.28C277.374 13.5333 275.561 13.16 272.948 13.16V10.6H290.948V13.16C288.388 13.16 286.681 13.5333 285.828 14.28C285.028 14.92 284.628 15.9867 284.628 17.48V35.32H313.108V17.48C313.108 15.9867 312.628 14.92 311.668 14.28C310.654 13.5333 308.974 13.16 306.628 13.16V10.6H324.788V13.16C322.228 13.16 320.441 13.5333 319.428 14.28C318.681 14.8667 318.308 15.9333 318.308 17.48V59.32C318.308 61.08 318.681 62.2533 319.428 62.84C320.441 63.5333 322.361 63.88 325.188 63.88V66.52ZM342.528 31.08C345.728 29.5867 349.408 28.84 353.568 28.84C356.928 28.84 359.648 29.72 361.728 31.48C363.968 33.5067 365.088 36.3333 365.088 39.96V60.68C365.088 60.9467 365.088 61.2667 365.088 61.64C365.141 62.0133 365.194 62.3867 365.248 62.76C365.354 63.1333 365.488 63.4533 365.648 63.72C365.861 63.9867 366.101 64.12 366.368 64.12C367.168 64.12 368.314 63.5333 369.808 62.36L370.768 63.56C368.421 66.3867 366.341 67.8 364.528 67.8C362.181 67.8 360.768 66.3067 360.288 63.32C356.981 66.3067 352.768 67.8 347.648 67.8C345.888 67.8 344.288 67.6133 342.848 67.24C341.461 66.8667 340.288 66.28 339.328 65.48C337.354 63.8267 336.368 61.5067 336.368 58.52C336.368 56.28 337.114 54.28 338.608 52.52C340.154 50.7067 342.128 49.2133 344.528 48.04C348.634 45.9067 353.861 44.44 360.208 43.64V38.68C360.208 36.6 359.568 34.92 358.288 33.64C357.541 32.8933 356.661 32.36 355.648 32.04C354.688 31.72 353.648 31.56 352.528 31.56C350.394 31.56 348.581 31.9867 347.088 32.84C346.181 33.4267 345.461 34.0133 344.928 34.6C344.394 35.1333 344.128 35.7467 344.128 36.44V36.84C344.128 39.4533 342.981 40.76 340.688 40.76C338.608 40.76 337.568 39.56 337.568 37.16C337.568 34.6533 339.221 32.6267 342.528 31.08ZM360.208 46.68C355.514 47.16 351.168 48.4933 347.168 50.68C343.541 52.7067 341.728 55.2933 341.728 58.44C341.728 60.1467 342.421 61.5333 343.808 62.6C345.194 63.6133 346.928 64.12 349.008 64.12C350.928 64.12 352.928 63.7467 355.008 63C356.714 62.4133 358.448 61.4 360.208 59.96V46.68ZM412.097 56.84C412.363 57.0533 412.63 57.24 412.897 57.4C413.163 57.56 413.43 57.7467 413.697 57.96C409.803 64.5733 404.577 67.88 398.017 67.88C393.323 67.88 389.323 66.2267 386.017 62.92C382.71 59.2933 381.057 54.7333 381.057 49.24C381.057 43.5333 382.87 38.6267 386.497 34.52C390.017 30.68 394.417 28.76 399.697 28.76C402.843 28.76 405.59 29.3733 407.937 30.6C408.79 31.0267 409.563 31.5333 410.257 32.12C411.003 32.7067 411.617 33.4 412.097 34.2C412.63 35.1067 412.897 36.0133 412.897 36.92C412.897 37.88 412.63 38.7867 412.097 39.64C411.563 40.4933 410.763 40.92 409.697 40.92C407.777 40.92 406.497 39.4267 405.857 36.44C405.697 35.64 405.377 34.9733 404.897 34.44C404.417 33.9067 403.83 33.4267 403.137 33C401.75 32.1467 400.043 31.72 398.017 31.72C394.977 31.72 392.283 33.2933 389.937 36.44C387.59 39.7467 386.417 43.64 386.417 48.12C386.417 50.52 386.71 52.7067 387.297 54.68C387.937 56.6533 388.87 58.36 390.097 59.8C392.603 62.7867 395.723 64.28 399.457 64.28C404.043 64.28 408.257 61.8 412.097 56.84ZM464.627 66.44H447.347V63.88C449.801 63.88 451.401 63.5867 452.147 63C452.467 62.84 452.627 62.6 452.627 62.28C452.627 61.8533 452.441 61.4533 452.067 61.08C451.801 60.8133 451.534 60.5467 451.267 60.28C451.054 60.0133 450.841 59.7467 450.627 59.48C449.027 57.3467 447.454 55.2133 445.907 53.08C444.361 50.8933 442.814 48.7333 441.267 46.6C440.147 47.5067 439.001 48.3867 437.827 49.24C436.707 50.0933 435.561 50.9733 434.387 51.88V59.72C434.387 61.32 434.734 62.3867 435.427 62.92C435.907 63.1867 436.521 63.4 437.267 63.56C438.014 63.7733 438.894 63.88 439.907 63.88V66.44H424.307V63.88C425.267 63.88 426.094 63.7733 426.787 63.56C427.534 63.4 428.121 63.1867 428.547 62.92C429.187 62.44 429.507 61.3733 429.507 59.72V18.36C429.507 16.5467 428.707 15.5067 427.107 15.24C426.841 15.1867 426.521 15.16 426.147 15.16C425.774 15.1067 425.321 15.08 424.787 15.08C424.734 14.8133 424.681 14.5733 424.627 14.36C424.574 14.0933 424.521 13.8267 424.467 13.56C426.174 12.92 427.827 12.3067 429.427 11.72C431.081 11.08 432.734 10.44 434.387 9.8V48.04C437.107 45.8 439.801 43.6133 442.467 41.48C445.187 39.2933 447.907 37.08 450.627 34.84C451.161 34.4667 451.427 34.0933 451.427 33.72C451.427 33.4533 451.321 33.2133 451.107 33C450.521 32.2533 448.814 31.88 445.987 31.88V29.4H462.147V31.88C460.654 31.88 459.427 32.0667 458.467 32.44C458.041 32.6533 457.161 33.3467 455.827 34.52L453.667 35.96C452.174 37.1867 450.681 38.4133 449.187 39.64C447.747 40.8667 446.254 42.0933 444.707 43.32C446.841 46.2 448.947 49.1067 451.027 52.04C453.161 54.92 455.294 57.8 457.427 60.68C458.227 61.7467 459.107 62.4667 460.067 62.84C461.401 63.5333 462.921 63.88 464.627 63.88V66.44ZM479.105 21.96C479.051 22.0133 478.998 22.04 478.945 22.04C478.518 22.04 478.305 21.8267 478.305 21.4C478.305 21.24 478.331 21.1333 478.385 21.08C478.598 20.8667 478.785 20.6533 478.945 20.44C479.158 20.2267 479.345 20.0133 479.505 19.8C480.518 18.3067 481.345 16.7867 481.985 15.24C482.678 13.64 483.158 11.9867 483.425 10.28C482.038 10.1733 480.891 9.66667 479.985 8.76C479.078 7.85333 478.625 6.62666 478.625 5.08C478.625 4.01333 478.971 3.05333 479.665 2.2C480.411 1.34666 481.558 0.919998 483.105 0.919998C483.798 0.919998 484.411 1.08 484.945 1.4C485.531 1.66666 485.985 2.01333 486.305 2.44C487.105 3.4 487.505 4.94666 487.505 7.08C487.505 8.2 487.291 9.42666 486.865 10.76C486.438 12.0933 485.878 13.4267 485.185 14.76C484.545 16.04 483.771 17.24 482.865 18.36C482.011 19.48 481.158 20.4133 480.305 21.16C480.091 21.32 479.878 21.48 479.665 21.64C479.505 21.7467 479.318 21.8533 479.105 21.96ZM554.462 52.92C553.822 55.32 553.182 57.72 552.542 60.12C551.955 62.52 551.342 64.92 550.702 67.32H519.582C519.582 67.0533 519.555 66.84 519.502 66.68C519.502 66.52 519.502 66.3333 519.502 66.12C519.502 63.1333 521.342 59.2933 525.022 54.6C526.142 53.2133 527.208 51.9333 528.222 50.76C529.288 49.5333 530.355 48.36 531.422 47.24C532.542 46.12 533.688 45 534.862 43.88C536.035 42.76 537.342 41.56 538.782 40.28C539.955 39.2133 541.048 38.0133 542.062 36.68C543.075 35.3467 543.955 33.96 544.702 32.52C545.448 31.0267 546.035 29.5333 546.462 28.04C546.942 26.4933 547.182 25.0267 547.182 23.64C547.182 22.0933 546.995 20.68 546.622 19.4C546.248 18.0667 545.608 16.92 544.702 15.96C543.635 14.7867 542.435 13.9067 541.102 13.32C539.768 12.68 538.168 12.36 536.302 12.36C533.528 12.36 530.995 13.1867 528.702 14.84C527.528 15.6933 526.595 16.6267 525.902 17.64C525.262 18.6533 524.942 19.7467 524.942 20.92C524.942 21.88 525.315 22.8133 526.062 23.72C526.435 24.1467 526.702 24.6533 526.862 25.24C527.075 25.7733 527.182 26.52 527.182 27.48C527.182 28.3333 526.835 29.0533 526.142 29.64C525.502 30.2267 524.675 30.52 523.662 30.52C522.115 30.52 521.075 29.96 520.542 28.84C520.008 27.72 519.742 26.1467 519.742 24.12C519.742 21.1867 520.702 18.4933 522.622 16.04C523.582 14.8133 524.648 13.72 525.822 12.76C526.995 11.8 528.302 11.08 529.742 10.6C531.982 9.8 534.355 9.4 536.862 9.4C541.555 9.4 545.315 10.68 548.142 13.24C551.128 15.9067 552.622 19.5867 552.622 24.28C552.622 26.04 552.328 27.8 551.742 29.56C551.208 31.32 550.328 33.0533 549.102 34.76C547.822 36.6267 546.328 38.4933 544.622 40.36C542.915 42.2267 541.048 44.0933 539.022 45.96C538.008 46.8667 536.835 47.88 535.502 49C534.168 50.12 532.648 51.48 530.942 53.08C528.275 55.5867 526.088 58.6 524.382 62.12H541.262C543.928 62.12 546.035 61.48 547.582 60.2C549.075 59.08 550.675 56.4667 552.382 52.36L554.462 52.92ZM603.75 51.16C603.75 55.9067 602.257 59.8533 599.27 63C595.75 66.68 591.084 68.52 585.27 68.52C582.71 68.52 580.444 68.1733 578.47 67.48C576.55 66.7867 574.817 65.8267 573.27 64.6C571.884 63.4267 570.817 62.0667 570.07 60.52C569.324 58.92 568.95 57.24 568.95 55.48C568.95 53.88 569.51 52.6267 570.63 51.72C571.164 51.24 571.91 51 572.87 51C575.217 51 576.39 52.28 576.39 54.84C576.39 55.2133 576.31 55.6933 576.15 56.28C576.044 56.8133 575.99 57.24 575.99 57.56C575.99 58.36 576.07 59.24 576.23 60.2C576.39 61.1067 576.684 61.8 577.11 62.28C579.244 64.4133 581.964 65.48 585.27 65.48C586.87 65.48 588.577 65.08 590.39 64.28C592.204 63.48 593.644 62.4667 594.71 61.24C597.004 58.6267 598.15 55.1867 598.15 50.92C598.15 47.6133 596.817 44.7067 594.15 42.2C592.657 40.8133 591.084 39.8267 589.43 39.24C587.777 38.6 585.75 38.28 583.35 38.28C583.137 38.28 582.897 38.3067 582.63 38.36C582.417 38.36 582.177 38.3867 581.91 38.44C581.644 38.4933 581.43 38.5467 581.27 38.6C581.11 38.6 580.977 38.6 580.87 38.6C580.177 38.6 579.697 38.2267 579.43 37.48C579.324 37.16 579.244 36.8933 579.19 36.68C579.19 36.4133 579.19 36.1467 579.19 35.88C579.19 35.08 579.564 34.6267 580.31 34.52C580.577 34.4667 580.817 34.4667 581.03 34.52C581.244 34.52 581.51 34.5467 581.83 34.6C582.15 34.6533 582.417 34.7067 582.63 34.76C582.897 34.76 583.137 34.76 583.35 34.76C584.364 34.76 585.404 34.6267 586.47 34.36C587.59 34.04 588.657 33.6667 589.67 33.24C591.164 32.5467 592.284 31.8267 593.03 31.08C595.484 29 596.71 26.28 596.71 22.92C596.71 19.6133 595.857 17.0267 594.15 15.16C593.244 14.2 592.124 13.4 590.79 12.76C589.51 12.0667 588.15 11.6933 586.71 11.64H585.35C585.137 11.64 584.924 11.64 584.71 11.64C584.497 11.64 584.284 11.6667 584.07 11.72C581.67 11.9333 579.804 12.7067 578.47 14.04C577.67 14.84 577.27 15.72 577.27 16.68C577.27 17.1067 577.35 17.56 577.51 18.04C577.67 18.4667 577.777 18.92 577.83 19.4C577.937 19.88 577.99 20.28 577.99 20.6C577.99 21.88 577.697 22.8933 577.11 23.64C576.577 24.3333 575.724 24.68 574.55 24.68L574.47 24.6C572.124 24.44 570.95 23 570.95 20.28C570.95 17.24 572.31 14.6267 575.03 12.44C577.75 10.3067 580.924 9.10666 584.55 8.84C584.817 8.78666 585.164 8.76 585.59 8.76H586.71C591.35 8.81333 595.11 10.12 597.99 12.68C600.764 15.24 602.15 18.6533 602.15 22.92C602.15 26.44 600.95 29.48 598.55 32.04C596.79 33.96 594.55 35.4533 591.83 36.52C595.297 37.5867 597.99 39.24 599.91 41.48C602.47 44.36 603.75 47.5867 603.75 51.16Z" fill="white"/>
</svg>
